<svg width="52" height="52" viewBox="0 0 52 52" xmlns="http://www.w3.org/2000/svg">
  <circle cx="26" cy="26" r="25" fill="#0A2240" stroke="#8AB3E4" stroke-width="2"/>
  <path d="M26 14C19 14 13 20.5 13 26a13 13 0 1026 0c0-5.5-6-12-13-12zm0 22a10 10 0 110-20 10 10 0 010 20zm2-10v-7h-4v6h1a1 1 0 110 2h-1a2 2 0 000 4h1a1 1 0 110 2h-1a4 4 0 110-8h1a1 1 0 100-2h-1z" fill="#8AB3E4"/>
  <text x="50%" y="90%" font-size="8" fill="#8AB3E4" font-weight="bold" text-anchor="middle" font-family="Arial, Helvetica, sans-serif">ISO 27001</text>
</svg>
